<svg id="Ebene_1" data-name="Ebene 1" xmlns="http://www.w3.org/2000/svg" viewBox="0 0 70 66"><defs><style>.cls-1{fill:#0d9cd8;}</style></defs><title>IB_Logo_77x60</title><path class="cls-1" d="M23.7,7.84A7.73,7.73,0,1,1,16,.11,7.74,7.74,0,0,1,23.7,7.84M65,47.51A11.22,11.22,0,0,1,65.82,52a15.58,15.58,0,0,1-.94,5.48,10.31,10.31,0,0,1-3.19,4.38,16.28,16.28,0,0,1-6,2.9,35.53,35.53,0,0,1-9.36,1c-1.09,0-2.07,0-3-.06l-2.47-.12-2.36-.12c-.79,0-1.67,0-2.62,0H5.24a.68.68,0,0,1-.68-.69V61.64A.69.69,0,0,1,5.12,61l4-.74a1.5,1.5,0,0,0,1-.54,1.65,1.65,0,0,0,.34-1.09V26.9a1.68,1.68,0,0,0-.34-1.1,1.65,1.65,0,0,0-1-.56l-4-.77a.68.68,0,0,1-.55-.67V20.65A.67.67,0,0,1,5.24,20H35.77c1.87,0,3.62-.06,5.26-.18s3.47-.17,5.49-.17a38,38,0,0,1,7.92.68,13.35,13.35,0,0,1,5,2A7.09,7.09,0,0,1,62,25.67a13.32,13.32,0,0,1,.75,4.66,11.1,11.1,0,0,1-2.23,7.22,10.6,10.6,0,0,1-5.33,3.5.12.12,0,0,0,0,.23,16.32,16.32,0,0,1,3.83.86,10.69,10.69,0,0,1,3.57,2.08A9.35,9.35,0,0,1,65,47.51M30.33,26.41A1.69,1.69,0,0,0,29,24.76a16,16,0,0,0-4.49.15l-1.69.33a1.62,1.62,0,0,0-1,.56,1.68,1.68,0,0,0-.34,1.1V58.56a1.65,1.65,0,0,0,.34,1.09,1.53,1.53,0,0,0,1,.54,16.55,16.55,0,0,0,6.18.47A1.71,1.71,0,0,0,30.33,59V26.41ZM41.4,38.79a.91.91,0,0,0,.89.91l3.44,0a5.19,5.19,0,0,0,4.66-2.2,11.37,11.37,0,0,0,1.46-6.28q0-4-1.65-5.79c-1.09-1.19-2.78-1.78-5.05-1.78l-.76,0-2.17.17a.9.9,0,0,0-.82.9ZM51.8,59.1a11,11,0,0,0,1.85-6.81q0-4.41-1.89-6.13a7.9,7.9,0,0,0-5.53-1.74c-.66,0-3.38.08-3.95.1a.9.9,0,0,0-.88.91V60.36a.91.91,0,0,0,.77.9l1.19.15a21.43,21.43,0,0,0,2.37.13q4.23,0,6.07-2.44"/></svg>